<svg width="26" height="23" viewBox="0 0 26 23" fill="none" xmlns="http://www.w3.org/2000/svg">
<path d="M22.3 0H3.7C1.6 0 0 1.41539 0 3.27308V19.7269C0 21.5846 1.6 23 3.7 23H22.3C24.4 23 26 21.5846 26 19.7269V3.27308C26 1.41539 24.4 0 22.3 0ZM13 18.4C17.3 18.4 20.8 15.3923 20.8 11.7654C20.8 11.1462 20.7 10.4385 20.5 9.90769H22.7V19.2846C22.7 19.7269 22.3 20.1692 21.7 20.1692H4.3C3.8 20.1692 3.3 19.8154 3.3 19.2846V9.81923H5.60001C5.40001 10.4385 5.3 11.0577 5.3 11.6769C5.2 15.3923 8.7 18.4 13 18.4ZM13 15.7462C10.2 15.7462 8 13.8 8 11.4115C8 9.02308 10.2 7.07692 13 7.07692C15.8 7.07692 18 9.02308 18 11.4115C18 13.8885 15.8 15.7462 13 15.7462ZM22.6 6.28077C22.6 6.81154 22.1 7.25385 21.5 7.25385H18.7C18.1 7.25385 17.6 6.81154 17.6 6.28077V3.89231C17.6 3.36154 18.1 2.91923 18.7 2.91923H21.5C22.1 2.91923 22.6 3.36154 22.6 3.89231V6.28077Z" fill="#A7A7A7"/>
</svg>
