<svg width="28" height="23" viewBox="0 0 28 23" fill="none" xmlns="http://www.w3.org/2000/svg">
<path d="M28 2.80127C27 3.24358 25.8572 3.53846 24.7143 3.6859C25.8572 2.94872 26.8571 1.76923 27.2857 0.442312C26.1429 1.17949 25 1.6218 23.5714 1.91667C22.5714 0.737184 21 0 19.4286 0C16.2857 0 13.7143 2.65385 13.7143 5.89743C13.7143 6.33974 13.7143 6.78204 13.8571 7.22435C9.14286 6.92948 4.85714 4.57051 1.99999 1.03205C1.57142 1.91666 1.28571 2.94871 1.28571 3.98076C1.28571 6.04487 2.28571 7.8141 3.85714 8.84615C2.85714 8.84615 1.99999 8.55128 1.28571 8.10897C1.28571 10.9103 3.2857 13.4167 5.85713 13.859C5.42856 14.0064 4.85714 14.0064 4.28572 14.0064C3.85714 14.0064 3.57143 14.0064 3.14285 13.859C3.85714 16.2179 6 17.9872 8.57143 17.9872C6.57143 19.609 4.14286 20.4936 1.42857 20.4936C1 20.4936 0.571429 20.4936 0 20.3462C2.57143 21.9679 5.57143 23 8.85714 23C19.4286 23 25.1429 14.0064 25.1429 6.1923V5.45512C26.2857 5.01281 27.2857 3.98076 28 2.80127Z" fill="#A7A7A7"/>
</svg>
