<svg width="26" height="23" viewBox="0 0 26 23" fill="none" xmlns="http://www.w3.org/2000/svg">
<path d="M25.7585 20.637C25.7585 20.4795 25.655 20.4795 25.655 20.3219C25.2413 19.0616 24.3102 17.4863 23.0689 15.7534C22.4482 14.9658 22.1378 14.3356 21.9309 14.0205C21.6206 13.3904 21.6206 12.9178 21.724 12.2877C21.8275 11.8151 22.2413 11.0274 22.9654 9.60958C23.3792 8.82191 23.5861 8.34932 23.8964 7.87672C25.4481 4.72603 26.1723 2.67807 25.9654 1.73286L25.862 1.57534C25.7585 1.41781 25.655 1.26028 25.4481 1.26028C25.2412 1.10275 24.9309 1.10275 24.6206 1.26028H20.6896C20.5861 1.26028 20.5861 1.26028 20.3792 1.26028C20.2758 1.26028 20.1723 1.26028 20.1723 1.26028H20.0689H19.9654L19.862 1.4178C19.7585 1.57533 19.7585 1.57533 19.7585 1.73286C19.3447 3.46574 18.8275 4.88355 18.3102 6.45889C17.9999 7.24657 17.6896 8.03425 17.3792 8.66439C17.0689 9.29453 16.862 9.76712 16.6551 10.0822C16.4482 10.3973 16.2413 10.5548 16.1378 10.8699C16.0344 11.0274 15.8275 11.1849 15.8275 11.0274C15.7241 11.0274 15.6206 11.0274 15.6206 10.8699C15.5172 10.7123 15.4137 10.5548 15.3103 10.3973C15.2068 10.2397 15.2068 9.92465 15.1034 9.60958C15.1034 9.29451 15.1034 8.97944 15.1034 8.82191C15.1034 8.66437 15.1034 8.19179 15.1034 7.87672C15.1034 7.40411 15.1034 7.08904 15.1034 6.9315C15.1034 6.4589 15.1034 5.82878 15.1034 5.19864C15.1034 4.5685 15.1034 4.09588 15.1034 3.78081C15.1034 3.46575 15.1034 2.99315 15.1034 2.67808C15.1034 2.20548 15.1034 1.8904 15.1034 1.73286C15.1034 1.57533 14.9999 1.26027 14.9999 1.10274C14.8965 0.945201 14.793 0.787662 14.6896 0.630128C14.5861 0.472593 14.3792 0.472598 14.2758 0.315064C13.7586 0.15753 13.1379 0 12.4137 0C10.7586 0 9.62065 0.157539 9.20686 0.472608C8.99996 0.630142 8.79307 0.787667 8.68962 1.10274C8.48272 1.4178 8.48272 1.57534 8.58617 1.57534C9.10341 1.73288 9.5172 2.04793 9.7241 2.52054L9.82755 2.83562C9.931 2.99316 9.93098 3.30821 10.0344 3.78081C10.1379 4.25342 10.1379 4.72602 10.1379 5.35616C10.1379 6.30136 10.1379 7.24658 10.1379 7.87672C10.1379 8.66439 10.0344 9.13698 10.0344 9.60958C10.0344 10.0822 9.931 10.3973 9.82755 10.5548C9.7241 10.8699 9.72409 11.0274 9.62064 11.0274C9.62064 11.0274 9.62064 11.1849 9.51719 11.1849C9.41374 11.1849 9.3103 11.3425 9.1034 11.3425C8.99996 11.3425 8.79307 11.1849 8.68962 11.0274C8.48272 10.8699 8.27583 10.5548 8.17238 10.2397C7.96549 9.92466 7.75858 9.45205 7.55169 8.82191C7.34479 8.19177 7.03444 7.56164 6.82754 6.61644L6.62067 5.98631C6.51722 5.67124 6.31032 5.04109 6.10343 4.25342C5.89653 3.46575 5.68963 2.83562 5.48273 2.04795C5.37929 1.73288 5.27585 1.57533 5.1724 1.4178H5.06895C5.06895 1.4178 4.96549 1.26028 4.86204 1.26028C4.75859 1.26028 4.65516 1.10274 4.55171 1.10274H0.827585C0.413794 1.10274 0.206902 1.26027 0.103454 1.4178L0 1.57534C0 1.57534 0 1.73287 0 1.89041C0 2.04794 6.31064e-06 2.20547 0.103454 2.52054C0.620693 4.41095 1.24138 6.30137 1.86206 8.19178C2.48275 9.92466 3.10344 11.5 3.51723 12.6027C4.03447 13.7055 4.44826 14.8082 4.9655 15.7534C5.48273 16.6986 5.79307 17.3288 5.89652 17.6438C6.10341 17.9589 6.20686 18.1164 6.3103 18.274L6.62067 18.7466C6.82756 19.0616 7.1379 19.5343 7.55169 20.0069C7.96548 20.4795 8.48271 20.9521 8.99995 21.4247C9.51719 21.8973 10.1379 22.2123 10.7586 22.5274C11.4827 22.8425 12.1034 23 12.7241 22.8425H14.2758C14.5861 22.8425 14.793 22.6849 14.9999 22.3699L15.1034 22.2123C15.1034 22.0548 15.2068 22.0548 15.2068 21.8973C15.2068 21.7397 15.2068 21.5822 15.2068 21.2671C15.2068 20.637 15.2068 20.1644 15.3103 19.6918C15.4137 19.2192 15.4137 18.9041 15.5172 18.5891C15.6206 18.274 15.7241 18.1164 15.8275 17.9589C15.931 17.8014 16.0344 17.6438 16.0344 17.6438H16.1378C16.3447 17.4863 16.6551 17.6438 16.862 17.9589C17.1723 18.274 17.4827 18.7466 17.6896 19.2192C17.8965 19.6918 18.2068 20.1644 18.6206 20.7945C19.0344 21.4247 19.3447 21.8973 19.5516 22.0548L19.862 22.3699C20.0689 22.5274 20.2758 22.6849 20.5861 22.8425C20.8965 23 21.1033 23 21.3102 23L24.8275 22.8425C25.1378 22.8425 25.4481 22.685 25.655 22.5274C25.8619 22.3699 25.9654 22.2123 25.9654 21.8973C25.9654 21.7397 25.9654 21.4247 25.9654 21.2671C25.7585 20.9521 25.7585 20.7945 25.7585 20.637Z" fill="#A7A7A7"/>
</svg>
